<svg>

  <symbol id="icon-logo" viewBox="0 0 23 34" fill="none" xmlns="http://www.w3.org/2000/svg">
    <path fill-rule="evenodd" clip-rule="evenodd" d="M0.0913696 10.9679C0.0913696 4.92017 5.01154 0 11.0593 0C17.1071 0 22.0272 4.92017 22.0272 10.9679V15.1413H19.2486V10.968C19.2486 6.45236 15.5749 2.77864 11.0593 2.77864C6.54367 2.77864 2.86994 6.45236 2.86994 10.968V15.1413H0.0913696V10.9679ZM0.000671387 32.9947C0.000671387 33.5499 0.450773 34 1.006 34C1.56122 34 2.01132 33.5499 2.01132 32.9947V26.7306H0.000671387V32.9947ZM4.02203 32.9947C4.02203 33.5499 4.47214 34 5.02736 34C5.58258 34 6.03268 33.5499 6.03268 32.9947V26.7306H4.02203V32.9947ZM9.04866 34C8.49344 34 8.04333 33.5499 8.04333 32.9947V26.7306H10.054V32.9947C10.054 33.5499 9.60388 34 9.04866 34ZM12.0647 32.9947C12.0647 33.5499 12.5148 34 13.07 34C13.6252 34 14.0753 33.5499 14.0753 32.9947V26.7306H12.0647V32.9947ZM17.0914 34C16.5362 34 16.0861 33.5499 16.0861 32.9947V26.7306H18.0967V32.9947C18.0967 33.5499 17.6466 34 17.0914 34ZM20.1073 32.9947C20.1073 33.5499 20.5574 34 21.1126 34C21.6678 34 22.118 33.5499 22.118 32.9947V26.7306H20.1073V32.9947ZM11.0593 9.57861C10.2931 9.57861 9.66992 10.2018 9.66992 10.968V15.1413H12.4486V10.968C12.4487 10.2018 11.8254 9.57861 11.0593 9.57861ZM4.88062 10.9681C4.88062 7.56116 7.65235 4.78943 11.0593 4.78943C14.4662 4.78943 17.238 7.56116 17.2379 10.9681V15.1414H14.4593V10.9681C14.4593 9.09328 12.934 7.56807 11.0593 7.56807C9.18447 7.56807 7.65925 9.09328 7.65925 10.9681V15.1414H4.88062V10.9681ZM0 24.7199L22.095 24.7877V22.009L0 21.9413V24.7199ZM22.095 17.2197V19.9983L0 19.9306V17.152L22.095 17.2197Z" fill="#528491"/>
  </symbol>

  <symbol id="icon-login" viewBox="0 0 15 15" fill="none" xmlns="http://www.w3.org/2000/svg">
    <path d="M12.8033 9.69668C11.9864 8.87982 11.0141 8.27511 9.95329 7.90904C11.0895 7.12649 11.8359 5.81684 11.8359 4.33594C11.8359 1.94511 9.89083 0 7.5 0C5.10917 0 3.16406 1.94511 3.16406 4.33594C3.16406 5.81684 3.91052 7.12649 5.04674 7.90904C3.9859 8.27511 3.01359 8.87982 2.19671 9.69668C0.780147 11.1133 0 12.9967 0 15H1.17188C1.17188 11.5107 4.01065 8.67188 7.5 8.67188C10.9893 8.67188 13.8281 11.5107 13.8281 15H15C15 12.9967 14.2199 11.1133 12.8033 9.69668ZM7.5 7.5C5.75534 7.5 4.33594 6.08063 4.33594 4.33594C4.33594 2.59125 5.75534 1.17188 7.5 1.17188C9.24466 1.17188 10.6641 2.59125 10.6641 4.33594C10.6641 6.08063 9.24466 7.5 7.5 7.5Z" fill="#354F62"/>
  </symbol>

  <symbol id="icon-body" viewBox="0 0 116 116" xmlns="http://www.w3.org/2000/svg">
    <path d="M95.7359 62.6859L95.6591 62.5668C96.4372 61.7291 97.1153 60.707 97.6302 59.341C99.2498 55.0394 97.9511 50.4054 94.2162 46.7589C94.2066 43.2815 91.5688 40.2767 86.7887 38.2959C85.1691 25.17 90.4487 11.2315 95.2575 1.74063L91.83 0.00384246C86.637 10.2517 80.9117 25.4986 83.1115 39.9097C83.4151 42.0653 83.8608 44.3016 84.4391 46.5495C85.0673 49.0279 85.7532 51.2373 86.5121 53.2853C81.9396 57.4083 71.5495 63.975 56.2854 72.3881C52.6024 70.3208 48.8983 68.1921 45.2153 65.9981C39.6821 62.6993 35.148 59.806 31.0039 56.4015C30.3987 55.9059 29.7859 55.3718 29.196 54.8069C30.1701 52.4073 31.0347 49.7598 31.8685 46.5591C32.2566 45.0644 32.5966 43.4966 32.879 41.9059C35.6129 26.7935 29.6514 10.7762 24.1701 0L20.7446 1.74256C25.832 11.7445 31.344 26.4304 29.2422 40.2037C24.5563 42.1364 21.9069 45.0471 21.7743 48.4246C21.0462 48.9529 20.5025 49.7445 20.1125 50.3208C18.9866 51.9904 18.2546 53.756 17.9396 55.5696C17.4266 58.5264 18.0817 61.5005 19.7359 63.7329C19.7647 63.7714 19.8012 63.8002 19.832 63.8386C18.2008 66.39 16.5601 69.0259 15.2671 71.879C9.29595 85.1969 10.9117 101.823 12.0971 114.012L12.1221 114.223L14.0433 114.221H15.9645C15.9645 114.004 15.9453 113.812 15.9165 113.593C15.3882 108.159 14.7772 101.793 14.8214 95.293C20.9578 96.7685 45.4612 103.214 55.6168 114.3C56.5928 115.379 57.9876 115.996 59.442 115.996C60.8963 115.996 62.2911 115.378 63.2594 114.307C72.4429 104.281 93.4765 98.0096 101.492 95.9097C101.496 102.184 100.906 108.302 100.399 113.535L100.341 113.977L104.151 114.465L104.216 113.965C105.398 101.825 107.014 85.1969 101.021 71.8809C99.5515 68.5994 97.611 65.5927 95.7359 62.6859ZM91.6763 65.4851C91.9895 65.3007 92.3007 65.1162 92.6081 64.9299C93.05 65.6158 93.4881 66.2939 93.9146 66.9683C93.2364 67.7387 85.4362 76.2037 70.5678 77.5312L73.1461 76.0672C76.9175 73.9308 80.6888 71.7944 84.4525 69.6427L85.7263 68.9164C87.6898 67.7925 89.7167 66.6359 91.6763 65.4851ZM90.3738 47.2584V47.2622C90.3738 47.2642 90.3718 47.268 90.3718 47.2699C90.2623 48.0442 89.9127 48.9011 89.3728 49.8232C88.9463 48.5034 88.5428 47.1086 88.1605 45.6004C87.9338 44.7166 87.7417 43.8405 87.5592 42.9683C89.1672 43.9731 90.6447 45.4198 90.3738 47.2584ZM90.1105 55.1643L90.3469 54.9164L90.5198 54.7339C90.7753 54.4553 91.0289 54.1729 91.2018 53.9404C91.9357 53.0183 92.5409 52.1076 93.0116 51.2181C94.1701 52.9087 95.0539 55.2661 94.0318 57.9846C93.2671 60.0173 92.0299 60.8184 89.7301 62.171C87.7839 63.3141 85.7724 64.463 83.8204 65.5773L82.5447 66.3055C78.7868 68.4553 75.0193 70.5879 71.2518 72.7224L64.1759 76.7378C62.8675 76.0288 61.5592 75.318 60.2393 74.5898C75.928 65.8655 85.9761 59.3314 90.1105 55.1643ZM28.2931 44.9856C28.2431 45.1854 28.2008 45.3948 28.149 45.5927C27.5995 47.7022 27.0366 49.537 26.4429 51.2257C26.295 50.9107 26.1624 50.5917 26.0606 50.2613C25.9376 49.8636 25.7859 49.5389 25.6226 49.2603C25.6206 49.2334 25.6302 49.2085 25.6264 49.1796C25.3632 47.3987 26.7446 45.9866 28.2931 44.9856ZM21.7263 56.2305C21.9203 55.1182 22.3469 54.0134 22.9982 52.9414C24.2796 55.61 26.4929 57.6715 28.564 59.3737C32.8925 62.9299 37.5649 65.9135 43.246 69.3007C53.5015 75.414 63.9184 81.0452 73.513 86.0538L71.1326 89.6234L27.198 64.732C25.5553 63.8021 23.855 62.8396 22.8214 61.4448C21.807 60.0769 21.3958 58.1249 21.7263 56.2305ZM81.3421 90.1018L79.2787 94.2363L74.4833 91.5197L76.9405 87.8348C78.4333 88.6071 79.9031 89.3641 81.3421 90.1018ZM44.0395 88.1844L41.8185 84.4861C43.5207 83.6023 45.3939 82.6206 47.3997 81.562C47.4112 81.562 47.4208 81.5639 47.4324 81.5639V81.5447C47.7129 81.3967 47.9991 81.245 48.2835 81.0951L52.4083 83.4332L44.0395 88.1844ZM38.3987 86.2555L40.6965 90.0826L36.7177 92.342L34.637 88.1787C35.5649 87.708 36.856 87.049 38.3987 86.2555ZM22.7023 66.4822C23.5688 67.0778 24.4602 67.5965 25.3036 68.0749L41.636 77.3276C31.0923 75.9366 24.4333 70.9952 21.5438 68.3497C21.9242 67.7272 22.3084 67.1028 22.7023 66.4822ZM60.4179 111.723C60.076 112.102 59.6591 112.158 59.44 112.158C59.221 112.158 58.8041 112.102 58.4544 111.716C46.904 99.1047 19.7551 92.4688 14.9271 91.3698C15.2498 85.1451 16.3104 78.9433 18.7695 73.4621C19.0289 72.8914 19.319 72.3285 19.6091 71.7656C23.0327 74.7243 29.8915 79.4102 40.2066 80.9952C39.4919 81.366 38.8041 81.7233 38.1567 82.0576C38.1471 82.0634 38.1355 82.0634 38.1259 82.0692C38.1202 82.073 38.1182 82.0769 38.1125 82.0807C33.9376 84.2382 31.246 85.5889 31.2018 85.61C30.2546 86.0865 29.8704 87.2392 30.3449 88.1864L34.1874 95.8713C34.4237 96.342 34.8425 96.6974 35.3459 96.8492C35.5303 96.9049 35.7186 96.9318 35.9069 96.9318C36.2354 96.9318 36.562 96.8473 36.856 96.682L44.318 92.4457C44.3276 92.44 44.3392 92.438 44.3488 92.4323C44.3545 92.4284 44.3565 92.4246 44.3622 92.4207L56.3065 85.6388L79.1461 98.5783C79.4381 98.7435 79.7647 98.828 80.0933 98.828C80.2815 98.828 80.4698 98.8012 80.6543 98.7454C81.1576 98.5917 81.5764 98.2363 81.8128 97.7656L85.6322 90.1172C86.1029 89.1739 85.7244 88.0288 84.7868 87.5504C80.8944 85.56 76.7638 83.4256 72.5063 81.1854C85.5918 79.5773 93.367 72.9894 95.9568 70.3958C96.514 71.3967 97.0481 72.4092 97.5169 73.4563C100.064 79.1201 101.113 85.5447 101.402 91.9654C92.7234 94.1633 70.5544 100.659 60.4179 111.723Z" fill="inherit"/>
    <path d="M111.442 47.0797C110.431 46.7397 109.346 47.2891 109.012 48.2939L108.527 49.7502C100.737 38.6878 108.504 29.4428 108.862 29.0298C109.555 28.2305 109.473 27.0202 108.677 26.3228C107.876 25.6234 106.666 25.708 105.966 26.5034C105.859 26.6263 96.1431 38.0403 104.956 51.3218L103.759 50.9222C102.75 50.584 101.665 51.1316 101.329 52.1364C100.992 53.1431 101.536 54.2305 102.543 54.5668L108.306 56.488C108.508 56.5552 108.714 56.5879 108.914 56.5879C109.719 56.5879 110.468 56.0788 110.737 55.2738L112.658 49.5101C112.992 48.5034 112.449 47.4159 111.442 47.0797Z" fill="inherit"/>
    <path d="M14.6734 54.0576C14.3391 53.0528 13.2536 52.5053 12.243 52.8434L11.0461 53.243C19.8588 39.9616 10.1431 28.5495 10.0355 28.4246C9.33618 27.6273 8.12388 27.5447 7.32465 28.244C6.52542 28.9433 6.44472 30.1556 7.14405 30.9548C7.50332 31.366 15.3266 40.5533 7.4745 51.6734L6.98843 50.2152C6.65222 49.2104 5.56672 48.6609 4.55808 49.001C3.55135 49.3372 3.00764 50.4246 3.34386 51.4313L5.26509 57.195C5.53406 58 6.28334 58.5091 7.08834 58.5091C7.28814 58.5091 7.49372 58.4765 7.69545 58.4092L13.4591 56.488C14.4659 56.1537 15.0096 55.0644 14.6734 54.0576Z" fill="inherit"/>
    <path d="M55.1172 46.9817H58.9597V52.7454H55.1172V46.9817Z" fill="inherit"/>
  </symbol>

  <symbol id="icon-food" viewBox="0 0 127 127"  xmlns="http://www.w3.org/2000/svg">
    <g clip-path="url(#clip0)">
    <path d="M19.1255 25.1178H23.3559V29.3482H19.1255V25.1178Z" fill="inherit"/>
    <path d="M19.1255 16.6571H23.3559V20.8875H19.1255V16.6571Z" fill="inherit"/>
    <path d="M19.1255 8.19635H23.3559V12.4267H19.1255V8.19635Z" fill="inherit"/>
    <path d="M41.8723 74.1605C41.4048 73.2129 41.0685 72.2399 40.8295 71.267C40.8274 71.2606 40.8274 71.2564 40.8252 71.25C39.2071 64.5999 42.3566 57.8799 42.4116 57.7678C42.9193 56.7166 42.4814 55.4538 41.4323 54.9441C40.3768 54.4343 39.1141 54.87 38.6064 55.9234C38.4732 56.1984 36.4806 60.3949 36.1655 65.795C34.0884 63.8955 31.9542 62.3409 30.3656 61.5286C30.3466 61.516 30.3339 61.4969 30.3128 61.4863C30.262 61.4546 30.2028 61.4419 30.152 61.4144C30.0759 61.3764 30.0103 61.3298 29.932 61.3002C26.6239 59.6779 23.872 59.1089 23.7557 59.0856C22.6135 58.8593 21.5009 59.5954 21.2661 60.7376C21.0334 61.8798 21.7716 62.9966 22.9138 63.2314C22.9371 63.2377 25.3421 63.7411 28.1891 65.1541C28.2018 65.1604 28.2145 65.1604 28.2251 65.1668C28.2335 65.171 28.2399 65.1795 28.2483 65.1837C28.2695 65.1943 28.2928 65.2027 28.3139 65.2133C28.3308 65.2218 28.3414 65.2387 28.3583 65.2471C30.5708 66.347 34.4331 69.5685 36.8402 72.7137C37.1406 73.82 37.5404 74.9326 38.0797 76.0282C38.4478 76.777 39.1987 77.2106 39.9792 77.2106C40.2922 77.2106 40.6116 77.1408 40.912 76.9928C41.959 76.4767 42.3905 75.2076 41.8723 74.1605Z" fill="inherit"/>
    <path d="M125.416 83.4314C124.174 81.5616 122.27 80.1888 120.092 79.4591C119.077 75.9542 115.904 73.4456 112.149 73.3102C113.708 71.7006 115.525 70.3553 117.604 69.3844C119.707 68.4305 120.695 66.1588 119.956 63.9717C119.21 61.7719 117.023 60.5535 114.749 61.0908C108.035 62.7047 102.265 67.1233 99.3207 72.8956C99.0774 73.3631 98.8511 73.8602 98.6311 74.3826C97.362 73.674 95.9173 73.2806 94.4071 73.2806C90.5871 73.2806 87.3508 75.6813 86.2002 79.1735C85.7919 79.2666 85.3964 79.3787 85.0072 79.5162L111.322 42.6718C113.437 39.2875 113.11 34.8371 110.59 31.1144L121.484 17.6639C121.972 17.0611 122.091 16.2383 121.792 15.5212C121.494 14.8042 120.828 14.3092 120.056 14.2289L112.657 13.4695C111.927 13.4061 111.208 13.7043 110.762 14.2881L107.57 18.455L107.504 16.086C107.483 15.352 107.083 14.6815 106.447 14.3135L100.01 10.595C99.3397 10.21 98.5063 10.2164 97.8443 10.6267C97.1822 11.0328 96.7973 11.771 96.8396 12.5452L97.5355 24.9613C97.4953 24.9655 97.4657 24.9634 97.4255 24.9677C94.3077 25.3822 91.6595 27.0046 90.09 29.528L66.0742 73.9321C65.9071 73.93 65.7463 73.9152 65.575 73.9152C63.2293 73.9152 60.9364 74.2092 58.726 74.7486C60.0903 73.9892 61.3087 72.9253 62.197 71.5123C63.2102 69.8963 63.6988 68.0476 63.6375 66.163C65.3487 65.4058 66.7976 64.1515 67.8213 62.5143C70.5986 58.0745 69.2448 52.1816 64.7839 49.3642C63.7475 48.7233 62.6243 48.2918 61.461 48.0824C60.7481 39.9664 53.9119 33.5807 45.614 33.5807C42.6168 33.5807 39.6576 34.4458 37.1257 36.0428C34.596 34.4458 31.6347 33.5807 28.6375 33.5807C21.7441 33.5807 15.7497 37.9422 13.571 44.3639C5.84849 45.4892 0 52.1266 0 60.0967C0 64.2107 1.55043 68.0709 4.31921 70.9983C2.91473 72.6884 2.12153 74.831 2.12153 77.071C2.12153 82.3315 6.40267 86.6147 11.6631 86.6147C13.5964 86.6147 15.4239 86.0521 16.968 85.0072C18.5121 86.0521 20.3417 86.6147 22.2729 86.6147C25.6678 86.6147 28.6735 84.7661 30.3635 82.0269C31.4169 83.5245 32.6965 85.4789 34.046 87.7083C30.2979 89.411 27.0194 91.7695 24.496 94.6398C20.3608 99.3439 18.7025 104.841 19.8278 110.123C22.0973 120.786 35.2602 127.07 49.1633 124.123C50.1659 123.905 51.1812 123.633 52.1922 123.303C56.3062 125.492 60.9131 126.645 65.575 126.645C73.5831 126.645 81.0285 123.351 86.2234 117.714C88.1906 121.549 92.6303 123.88 97.2182 123.081C99.1642 122.746 100.954 121.858 102.388 120.557C103.794 121.837 105.571 122.721 107.53 123.078C108.156 123.191 108.78 123.243 109.395 123.243C114.159 123.243 118.427 120.026 119.406 115.417L125.746 95.3335L126.784 90.6124C126.784 90.6103 126.784 90.6103 126.784 90.6082C127.326 88.125 126.839 85.5762 125.416 83.4314ZM115.142 79.0064C114.603 79.091 114.074 79.2201 113.558 79.3872C113.535 79.3935 113.511 79.3956 113.488 79.4041C112.949 79.5818 112.426 79.7996 111.923 80.0619C111.633 79.5437 111.271 79.0699 110.878 78.6236C110.768 78.4988 110.654 78.3846 110.537 78.2661C110.4 78.1286 110.282 77.9742 110.136 77.8452C111.817 77.1451 113.973 77.6675 115.146 79.0064C115.144 79.0043 115.142 79.0064 115.142 79.0064ZM103.079 74.8332C105.476 70.1332 110.208 66.5332 115.861 65.1964C115.923 65.226 115.988 65.4037 115.965 65.465C115.965 65.4671 115.94 65.4967 115.853 65.5348C115.845 65.539 115.836 65.5433 115.828 65.5475C111.265 67.6733 107.616 71.1506 105.271 75.601C105.023 75.565 104.765 75.5417 104.499 75.5248L103.712 75.4846C103.494 75.4719 102.868 75.4656 102.766 75.4698C102.868 75.2499 102.974 75.0383 103.079 74.8332ZM96.6153 78.099C96.5794 78.135 96.0548 78.7484 95.8412 79.0276C95.7312 79.1714 94.9528 80.3559 94.7455 80.8424C94.2167 80.4596 92.7044 79.734 92.5309 79.6642C92.0889 79.4866 91.0334 79.1566 90.9593 79.1397C92.2284 77.5639 94.7921 77.0456 96.6153 78.099ZM113.401 17.7993L115.737 18.0383L107.832 27.7999L107.758 25.1644L113.401 17.7993ZM103.31 17.3847L103.543 25.6889C102.999 25.507 102.453 25.3357 101.924 25.2194C101.903 25.213 101.884 25.2151 101.863 25.2109C101.838 25.2046 101.812 25.194 101.787 25.1897L101.286 16.215L103.31 17.3847ZM93.7472 31.6538C94.2421 31.0869 95.6276 29.6634 97.8993 29.1705C100.397 28.629 102.383 29.5576 103.179 29.9426C105.013 30.8331 106.043 32.1191 106.328 32.4935C108.786 35.7234 107.957 39.6703 107.811 40.3197L80.6944 78.2767C77.6802 76.3688 74.2451 75.0299 70.6409 74.3784L76.1065 64.272L80.3157 66.9054C80.6647 67.1254 81.0518 67.2269 81.4347 67.2269C82.139 67.2269 82.8286 66.8758 83.2305 66.2328C83.8502 65.2429 83.5499 63.9378 82.5599 63.3181L78.1244 60.543L84.195 49.3156L87.7189 51.5217C88.0679 51.7417 88.4571 51.8432 88.8399 51.8432C89.5443 51.8432 90.2338 51.4921 90.6357 50.8491C91.2555 49.8592 90.9551 48.5541 89.9652 47.9343L86.2129 45.5844L93.7472 31.6538ZM52.5687 77.0393C52.408 76.5803 52.2578 76.1488 52.1266 75.7617C53.1292 75.9732 54.1424 76.0113 55.145 75.8992C54.2672 76.2419 53.4042 76.612 52.5687 77.0393ZM46.7012 71.7534C46.7414 72.9083 47.3527 75.0299 48.8904 79.3343C46.6885 80.9418 44.7023 82.8413 43.0631 85.0664C42.3333 85.1701 41.629 85.2928 40.9352 85.445C39.9601 85.6523 39.0083 85.9104 38.0691 86.198C35.7043 82.2321 32.7156 77.7183 31.1271 76.2101C31.1228 76.2059 31.1228 76.2017 31.1186 76.1996C28.665 73.8559 25.598 71.965 22.2496 70.7276C22.2475 70.7276 22.2454 70.7234 22.2433 70.7234C22.2369 70.7212 22.2327 70.7191 22.2243 70.717C22.2221 70.717 22.2221 70.7149 22.22 70.7149H22.2179C20.2021 69.9492 18.8019 69.7059 18.6475 69.6806C17.5032 69.4796 16.416 70.2686 16.2235 71.4171C16.031 72.5657 16.8073 73.6571 17.9558 73.8517C17.96 73.8517 20.1133 74.334 21.8879 75.2118C24.5531 76.5317 27.2246 78.4438 27.3599 78.5601C26.719 80.7705 24.6546 82.3844 22.2729 82.3844C20.8198 82.3844 19.4787 81.8175 18.4973 80.7895C17.6978 79.9519 16.2341 79.954 15.4366 80.7895C14.4552 81.8175 13.1142 82.3844 11.6631 82.3844C8.7336 82.3844 6.3519 80.0006 6.3519 77.071C6.3519 75.3408 7.20855 73.7142 8.64476 72.7201C9.19894 72.3351 9.53526 71.7111 9.5543 71.0385C9.57333 70.3659 9.27086 69.725 8.73783 69.3125C5.87387 67.0852 4.23037 63.7263 4.23037 60.0967C4.23037 53.8674 9.09741 48.7466 15.3118 48.4378C16.2531 48.3912 17.0484 47.7292 17.2663 46.8112C18.5227 41.5105 23.1994 37.8068 28.6396 37.8068C31.2667 37.8068 33.7499 38.6635 35.8228 40.2879C36.5885 40.8865 37.663 40.8865 38.4287 40.2879C40.5016 38.6635 42.9869 37.8068 45.6119 37.8068C52.0505 37.8068 57.2898 43.0461 57.2898 49.4848C57.2898 49.599 57.294 49.7132 57.2813 49.8274C57.2137 50.4472 57.4231 51.0627 57.8525 51.5154C58.2818 51.9659 58.8931 52.188 59.5065 52.1689C60.5641 52.1266 61.6217 52.3805 62.5418 52.9494C65.0187 54.5147 65.7781 57.7975 64.234 60.2659C63.4662 61.4927 62.2711 62.3324 60.8751 62.6307C60.3188 62.7491 59.8323 63.0854 59.5298 63.5656C59.2252 64.0478 59.1279 64.6295 59.2591 65.1837C59.5954 66.6114 59.3669 68.0582 58.6139 69.2596C57.0508 71.7513 53.7701 72.5149 51.2975 70.9708C50.9421 70.7487 50.6185 70.4886 50.3139 70.1861C49.8845 69.7567 49.3156 69.5621 48.7508 69.579C48.7466 69.579 48.7402 69.5769 48.736 69.5769C48.6027 69.5769 47.8561 69.596 47.2702 70.2051C46.6589 70.8397 46.6927 71.6265 46.7012 71.7534ZM75.0383 88.0933C72.5974 86.1811 69.5812 85.1151 66.5078 84.9268C63.4344 84.7386 60.304 85.4281 57.6388 87.0272C52.9939 89.7791 50.1088 94.8534 50.1088 100.27C50.1088 108.795 57.0444 115.732 65.5708 115.732C74.0971 115.732 81.0328 108.797 81.0328 100.27C81.0328 100.048 81.0285 99.8283 81.0201 99.6083L84.1569 111.028L84.6942 112.983C80.3221 118.907 73.2447 122.416 65.575 122.416C61.3298 122.416 57.1396 121.293 53.455 119.167C53.1314 118.979 52.7654 118.884 52.3974 118.884C52.1584 118.884 51.9151 118.926 51.6867 119.009C50.5445 119.415 49.3959 119.747 48.2791 119.988C36.6562 122.457 25.7524 117.628 23.9651 109.245C23.1253 105.302 24.4431 101.108 27.673 97.436C31.0552 93.5906 36.0766 90.8028 41.8236 89.5845C42.6823 89.3983 43.5538 89.2587 44.4845 89.1551C45.1 89.0874 45.6521 88.7553 45.9989 88.2434C50.3097 81.9211 57.6261 78.1477 65.6575 78.1477C66.8505 78.1477 68.0371 78.2365 69.2829 78.4205C69.3104 78.4247 69.34 78.429 69.3718 78.4311C72.9126 78.9937 76.2905 80.3242 79.1714 82.304C79.4464 82.4859 79.7171 82.6826 79.9858 82.8814C79.99 82.8835 79.9921 82.8899 79.9963 82.892C80.0027 82.8962 80.009 82.8962 80.0133 82.9005C80.0788 82.9491 80.1444 82.9914 80.21 83.0401C79.7425 84.1865 79.2158 85.8194 78.998 87.8352C78.7716 89.9229 78.9578 91.6848 79.1841 92.9243C78.8139 92.1798 78.2513 91.228 77.4116 90.2486C76.5718 89.2714 75.7173 88.5713 75.0383 88.0933ZM65.575 111.502C60.1559 111.502 55.6209 107.644 54.5718 102.532C54.4216 101.802 54.3434 101.045 54.3434 100.27C54.3434 96.3425 56.4332 92.6599 59.809 90.6611C61.5583 89.6141 63.5529 89.0599 65.575 89.0599C68.0519 89.0599 70.4886 89.8975 72.4536 91.4374C75.2202 93.5526 76.8066 96.7719 76.8066 100.27C76.8066 101.045 76.7284 101.8 76.5782 102.532C75.5291 107.644 70.9941 111.502 65.575 111.502ZM122.649 89.7093L121.699 94.0369L115.339 114.25C115.316 114.324 115.297 114.398 115.282 114.474C114.679 117.505 111.536 119.483 108.281 118.92C106.552 118.605 105.068 117.609 104.213 116.185C103.834 115.555 103.156 115.17 102.419 115.163C102.413 115.163 102.407 115.163 102.402 115.163C101.673 115.163 100.996 115.54 100.609 116.158C99.6824 117.64 98.225 118.62 96.5032 118.918C93.2332 119.485 90.0837 117.48 89.4491 114.315L89.0472 112.852C89.0451 112.843 89.0472 112.837 89.0451 112.828L82.672 89.6352C82.6149 89.2926 82.5811 88.9499 82.5811 88.6369C82.5811 87.0695 83.3256 85.5593 84.6328 84.4848C85.3943 83.8502 86.4011 83.3975 87.4354 83.2178C87.6554 83.1818 87.8733 83.148 88.0975 83.131C90.6759 82.9385 93.1528 84.3388 94.1131 86.5576C94.204 86.7692 94.5678 87.1943 94.6102 87.2345C94.7307 87.3487 94.8555 87.4524 94.9993 87.5348C95.0522 87.5645 95.4562 87.7316 95.6127 87.7654C95.6804 87.7802 96.2854 87.8183 96.4038 87.7992C97.3641 87.6364 98.0896 86.839 98.1616 85.8681L98.3096 83.8354C98.3181 77.9827 108.494 78.0779 108.735 83.6831C108.824 84.4932 109.372 85.1806 110.144 85.4472C110.356 85.5212 110.573 85.5529 110.791 85.5572C110.806 85.5572 111.343 85.4937 111.536 85.4281C111.599 85.407 111.659 85.3858 111.718 85.3583C111.944 85.2547 112.16 85.1235 112.342 84.9395C113.776 83.4864 115.845 82.837 117.89 83.2093C117.922 83.2156 117.953 83.2199 117.985 83.2241C119.607 83.5477 121.027 84.4721 121.89 85.7708C122.677 86.9532 122.945 88.3513 122.649 89.7093Z" fill="inherit"/>
    <path d="M50.4387 31.4634C57.2982 31.4634 63.5465 25.6403 63.5465 19.2482C63.5465 15.407 61.8649 13.7233 61.1479 13.002C60.4837 12.3358 59.4557 12.1898 58.6329 12.6425C57.8757 13.057 57.4527 13.8862 57.5478 14.7302C57.5246 15.278 57.1185 16.7734 56.505 16.8263C56.4754 16.7861 56.2216 16.3906 56.4077 14.6773C56.4416 14.3113 56.4987 13.9052 56.5579 13.4695C57.0423 9.92022 58.0555 2.54034 48.7233 0.408232C48.3785 0.32997 47.947 0.351122 47.6065 0.376504C46.7413 0.442075 46.0306 1.05125 45.7726 1.8804C45.5463 2.61014 45.7536 3.41391 46.2675 3.96597C48.0358 6.56554 47.6213 7.94887 47.1813 9.40835C47.0946 9.69601 47.0142 9.96887 46.9486 10.2333C46.7688 10.9545 45.4659 12.5282 44.5331 13.1691C44.5289 13.1374 44.5246 13.1057 44.5204 13.0718C44.4189 12.1623 43.742 11.4199 42.8452 11.2338C41.9462 11.0518 41.0325 11.4622 40.5798 12.2596C40.0468 13.1966 39.1838 15.5297 38.9532 16.3483C38.6656 17.3847 38.5196 18.4592 38.5196 19.5443C38.5196 26.1162 43.8668 31.4634 50.4387 31.4634ZM43.0186 17.5201C43.3147 17.6089 43.5834 17.647 43.7864 17.6576C46.9465 17.9114 50.4704 13.5774 51.05 11.2591C51.1007 11.0582 51.1642 10.8488 51.2298 10.6309C51.5196 9.67063 51.9109 8.36768 51.7649 6.70937C52.8585 8.21538 52.7189 10.2988 52.3635 12.8963C52.2937 13.3997 52.2303 13.8693 52.1816 14.3896C52.0864 15.2611 51.7966 17.9135 53.3471 19.6437C53.9013 20.2635 54.9081 21.0017 56.5537 21.0017C57.5394 21.0017 58.4616 20.7013 59.2442 20.1387C58.6647 23.8424 54.5866 27.233 50.4366 27.233C46.1977 27.233 42.75 23.7832 42.75 19.5443C42.75 18.8548 42.8409 18.1716 43.0186 17.5201Z" fill="inherit"/>
    <path d="M65.6597 44.1545H69.89V48.3849H65.6597V44.1545Z" fill="inherit"/>
    <path d="M65.6597 35.6938H69.89V39.9241H65.6597V35.6938Z" fill="inherit"/>
    <path d="M27.5862 8.19635H31.8166V12.4267H27.5862V8.19635Z" fill="inherit"/>
    <path d="M76.2355 8.19635H80.4659V12.4267H76.2355V8.19635Z" fill="inherit"/>
    <path d="M67.7748 8.19635H72.0052V12.4267H67.7748V8.19635Z" fill="inherit"/>
    <path d="M84.6963 8.19635H88.9267V12.4267H84.6963V8.19635Z" fill="inherit"/>
    <path d="M84.6963 16.6571H88.9267V20.8875H84.6963V16.6571Z" fill="inherit"/>
    <path d="M84.6963 25.1178H88.9267V29.3482H84.6963V25.1178Z" fill="inherit"/>
    </g>
    <defs>
    <clipPath id="clip0">
    <rect width="127" height="127" fill="inherit"/>
    </clipPath>
    </defs>
  </symbol>

  <symbol id="icon-face" viewBox="0 0 122 122" xmlns="http://www.w3.org/2000/svg">
    <path d="M23.3754 94.55C19.4437 94.55 16.2507 91.357 16.2507 87.4254C16.2507 86.3055 15.3453 85.4 14.2254 85.4C13.1054 85.4 12.2 86.3055 12.2 87.4254C12.2 91.357 9.007 94.55 5.07536 94.55C3.95543 94.55 3.04996 95.4555 3.04996 96.5754C3.04996 97.6953 3.95543 98.6008 5.07536 98.6008C9.007 98.6008 12.2 101.794 12.2 105.725C12.2 106.845 13.1054 107.751 14.2254 107.751C15.3453 107.751 16.2507 106.845 16.2507 105.725C16.2507 101.794 19.4437 98.6008 23.3754 98.6008C24.4953 98.6008 25.4007 97.6953 25.4007 96.5754C25.4007 95.4555 24.5191 94.55 23.3754 94.55ZM14.2254 99.3156C13.4867 98.2672 12.5574 97.3379 11.5089 96.5992C12.5574 95.8605 13.4867 94.9313 14.2254 93.8828C14.964 94.9313 15.8933 95.8605 16.9418 96.5992C15.8933 97.3379 14.9879 98.2434 14.2254 99.3156Z" fill="inherit"/>
    <path d="M114.947 93.7875L112.135 97.5523C109.872 89.4031 102.413 83.3746 93.5254 83.3746C93.3586 83.3746 93.2156 83.3984 93.0489 83.3984C93.1918 82.7551 93.3586 82.1355 93.4778 81.4922C93.6207 81.4922 93.7637 81.516 93.9067 81.516C100.602 81.516 106.059 76.0594 106.059 69.3398C106.059 66.0277 104.748 62.9301 102.437 60.6902C102.699 59.6418 102.914 58.5934 103.104 57.5449C104.701 58.8555 105.725 60.8094 105.725 63.0254C105.725 64.1453 106.631 65.0508 107.751 65.0508C108.871 65.0508 109.776 64.1453 109.776 63.0254C109.776 59.0938 112.969 55.9008 116.901 55.9008C118.021 55.9008 118.926 54.9953 118.926 53.8754C118.926 52.7555 118.021 51.85 116.901 51.85C112.969 51.85 109.776 48.657 109.776 44.7254C109.776 43.6055 108.871 42.7 107.751 42.7C106.631 42.7 105.725 43.6055 105.725 44.7254C105.725 46.5363 105.034 48.1805 103.914 49.4195C103.914 49.0621 103.938 48.7285 103.938 48.3711C103.938 46.0121 103.772 43.677 103.462 41.3895C112.278 39.2449 118.688 31.2625 118.688 22.0172C118.688 11.0086 109.752 2.07305 98.7438 2.07305C94.7406 2.07305 90.8805 3.24063 87.5922 5.48047C86.3531 6.31445 85.2571 7.33906 84.2324 8.43516C76.9649 3.12148 68.1723 0 58.7125 0C33.7645 0 13.4868 21.7074 13.4868 48.3949C13.4868 53.1129 14.1301 57.7117 15.3692 62.1437C13.8203 64.2168 12.9149 66.7188 12.9149 69.3398C12.9149 75.9402 18.2047 81.3254 24.7575 81.4922C29.2133 104.224 43.1528 119.975 59.0938 119.975C65.4559 119.975 71.6274 117.496 77.084 112.779C80.4914 118.307 86.5676 122 93.5254 122C99.3871 122 104.868 119.379 108.561 114.828C109.276 113.946 109.133 112.683 108.251 111.968C107.37 111.254 106.107 111.396 105.392 112.278C102.485 115.876 98.1481 117.949 93.5254 117.949C85.1141 117.949 78.2754 111.111 78.2754 102.699C78.2754 94.2879 85.1141 87.4492 93.5254 87.4492C100.745 87.4492 106.798 92.477 108.37 99.1965L104.034 97.0281C103.033 96.5277 101.818 96.9328 101.293 97.9336C100.793 98.9344 101.198 100.15 102.199 100.674L109.872 104.51C110.014 104.582 110.586 104.82 111.301 104.653C111.945 104.486 112.302 104.057 112.421 103.914L118.188 96.2418C118.855 95.3363 118.688 94.0734 117.782 93.4062C116.901 92.6914 115.614 92.882 114.947 93.7875ZM107.775 51.159C108.513 52.2074 109.443 53.1367 110.491 53.8754C109.443 54.6141 108.513 55.5434 107.775 56.5918C107.036 55.5434 106.107 54.6141 105.058 53.8754C106.107 53.1367 107.012 52.2074 107.775 51.159ZM99.0297 62.9062C100.984 64.4313 101.984 66.8379 101.984 69.316C101.984 73.7004 98.5055 77.2746 94.1688 77.4176C94.5739 75.273 94.9074 72.7949 95.0504 70.0309C95.2172 66.7426 95.0742 63.8117 94.7883 61.3098C95.384 61.2859 96.5754 61.3336 97.7668 62.0723C98.2672 62.382 98.7438 62.6203 99.0297 62.9062ZM98.7438 6.17148C107.513 6.17148 114.613 13.2961 114.613 22.041C114.613 27.3547 111.945 32.1441 107.798 35.0512C105.678 20.2301 97.8145 11.6281 92.5485 7.4582C94.5024 6.64805 96.5992 6.17148 98.7438 6.17148ZM88.8313 9.72188C93.5969 13.1531 102.223 21.4215 103.986 37.0289C103.581 37.1719 103.176 37.291 102.771 37.3863C100.483 26.8543 94.9789 17.6328 87.4254 11.0086C87.8543 10.5559 88.3309 10.127 88.8313 9.72188ZM16.9895 69.3398C16.9895 68.625 17.0848 67.9102 17.2754 67.243C17.3707 66.9094 17.7996 65.4082 19.1102 63.9309C19.5153 63.4543 20.3016 62.6203 21.5883 62.0008C22.327 61.6672 22.9703 61.5004 23.4469 61.4289V61.6434V61.8578C23.3516 63.2637 23.3039 64.741 23.3039 66.2898C23.3039 67.9578 23.3754 69.6258 23.4707 71.2938C23.4946 71.5797 23.4946 71.8418 23.5184 72.1277C23.6375 73.748 23.8043 75.3684 24.0188 76.9887C24.0426 77.1078 24.0426 77.227 24.0664 77.3461C20.0633 76.8695 16.9895 73.4621 16.9895 69.3398ZM24.3285 53.5895C24.2332 54.1137 24.1856 54.6617 24.1141 55.1859C24.0188 55.877 23.8996 56.5441 23.8282 57.2352C23.1371 57.259 22.184 57.3781 21.1118 57.7594C20.0871 58.1168 19.3008 58.5934 18.7766 58.9746C18.5383 57.95 18.3477 56.9254 18.1809 55.9008C18.4192 56.1867 18.7051 56.4488 19.0625 56.5918C19.277 56.6633 19.5153 56.7109 19.7536 56.7109C20.5637 56.7109 21.35 56.2105 21.6598 55.4242C21.6836 55.3527 22.2555 54.0898 24.4477 52.8508C24.4 53.0891 24.3524 53.3512 24.3285 53.5895ZM89.8321 78.9188C89.5461 80.6105 89.1887 82.3023 88.7836 83.9703C80.4199 86.091 74.2246 93.6684 74.2246 102.675C74.2246 104.868 74.6059 106.964 75.2731 108.918C70.3645 113.47 64.8125 115.9 59.1176 115.9C44.7731 115.9 32.1442 100.721 28.4032 78.9664C28.4032 78.9187 28.3793 78.8711 28.3793 78.7996C28.0219 76.6551 27.7598 74.4867 27.593 72.3422C27.4262 70.3406 27.3547 68.3152 27.3547 66.3137C27.3547 64.7887 27.4262 63.3113 27.4977 61.8578C27.5453 61.0477 27.593 60.2137 27.6883 59.4512C27.7598 58.4742 27.9028 57.4973 28.0219 56.5441C28.2602 54.7332 28.5223 52.9461 28.8797 51.2305C28.9989 51.2066 33.836 50.468 36.6 50.468C37.1004 50.468 39.3164 50.4203 39.3879 50.4203C42.0805 50.3488 45.059 50.1582 48.1805 49.8008C61.0477 48.3949 76.536 44.5348 84.2324 36.0758C87.6399 42.9383 89.8082 51.016 90.5707 59.5703C90.9281 62.2867 91.1664 65.5273 91.0473 69.173C90.8805 72.9141 90.4039 76.2023 89.8321 78.9188ZM36.6 46.3695C33.3832 46.3695 30.5239 46.6793 28.0457 47.2512C27.5453 47.3703 27.045 47.4656 26.5922 47.6086C26.5922 47.6086 26.5922 47.6086 26.5684 47.6086C20.0157 49.491 18.2285 53.0176 17.8711 53.8992C17.6567 52.0883 17.5614 50.2535 17.5614 48.3949C17.5614 23.9473 36.0282 4.05078 58.7364 4.05078C78.7996 4.05078 95.527 19.5629 99.1727 40.0312V40.0551C99.6492 42.7477 99.9113 45.5355 99.9113 48.3711C99.9113 49.491 99.8637 50.6109 99.7684 51.707C99.3871 51.7547 99.0297 51.8262 98.6246 51.8262C97.5047 51.8262 96.5992 52.7316 96.5992 53.8516C96.5992 54.9715 97.5047 55.877 98.6246 55.877C98.8391 55.877 99.0535 55.9246 99.268 55.9484C99.1488 56.7109 99.0059 57.4496 98.8391 58.2121C98.2196 57.9738 97.5047 57.7355 96.6945 57.5449C95.8606 57.3543 95.0981 57.2352 94.4071 57.1637C93.9067 53.6133 93.0965 49.5625 91.8098 45.1543C90.3563 40.1742 88.593 35.8852 86.8774 32.3348C87.3778 31.7391 88.8313 28.5699 89.1887 25.4008C89.3078 24.2809 88.4977 23.2801 87.4016 23.1609C86.7344 23.0895 86.1387 23.3277 85.7098 23.7566C85.2809 24.2094 85.1856 24.7574 85.1617 24.948C85.0903 25.3531 84.4469 29.1418 83.0887 31.3816C82.0641 33.0734 78.2516 35.9328 78.2516 35.9328C77.7035 36.3617 73.3668 38.959 73.1047 39.0781C72.3899 39.4355 67.386 41.4609 67.1715 41.5562C66.3375 41.8422 65.4797 42.1281 64.6219 42.3902C64.4313 42.4379 62.2153 43.0812 61.286 43.3195C61.1192 43.3672 57.6403 44.1535 57.4973 44.1773C56.4965 44.3918 50.9446 45.2973 50.8492 45.3211C48.8953 45.5832 46.6317 45.8453 44.1059 46.0359L36.6 46.3695Z" fill="inherit"/>
    <path d="M92.5246 95.5746C91.4047 95.5746 90.4992 96.4801 90.4992 97.6V105.725C90.4992 106.845 91.4047 107.751 92.5246 107.751H100.65C101.77 107.751 102.675 106.845 102.675 105.725C102.675 104.605 101.77 103.7 100.65 103.7H94.55V97.6C94.55 96.4801 93.6445 95.5746 92.5246 95.5746Z" fill="inherit"/>
  </symbol>

  <symbol id="icon-heart-rate" viewBox="0 0 124 124" xmlns="http://www.w3.org/2000/svg">
    <path d="M112.067 68.5153C117.26 60.4715 122.671 48.9009 121.779 36.4651C121.775 36.3985 121.74 36.3445 121.727 36.28C121.068 25.4559 114.586 15.6237 104.82 10.8927C95.3395 6.30107 83.5463 7.09754 74.7706 12.9265C69.3034 16.5595 65.1796 22.0288 62.9857 28.1822C60.0889 20.9724 54.7756 14.8626 47.9567 11.3378C37.3447 5.8498 23.8047 7.32213 15.0394 14.9167C6.64003 22.1951 2.72006 35.0094 5.04917 47.5637C5.82693 51.7478 7.26182 55.9922 9.29147 60.1887L8.82149 61.5487H2.07956C0.931643 61.5487 0 62.4804 0 63.6283C0 64.7762 0.931643 65.7079 2.07956 65.7079H10.3021C11.188 65.7079 11.9783 65.1443 12.2673 64.3083L18.0527 47.5762L24.8154 64.4061C25.1315 65.1942 25.8968 65.7099 26.7452 65.7099H33.3437L37.0598 80.5809C37.2907 81.5063 38.1225 82.1551 39.077 82.1551C40.0315 82.1551 40.8633 81.5063 41.0942 80.5809L44.8124 65.7099H47.2996C48.2333 65.7099 49.0527 65.0882 49.3022 64.1877L52.6337 52.224L57.6038 74.3651C57.8201 75.3217 58.7039 76.0183 59.6563 75.9892C60.6379 75.9788 61.478 75.2801 61.6714 74.3172L63.3933 65.7099H69.9106C71.0586 65.7099 71.9902 64.7783 71.9902 63.6304C71.9902 62.4825 71.0586 61.5508 69.9106 61.5508H61.6881C60.6961 61.5508 59.8435 62.2496 59.6501 63.2228L59.517 63.8924L54.8796 43.2361C54.6716 42.3066 53.8564 41.637 52.904 41.6141C51.8996 41.5642 51.1031 42.2172 50.8473 43.1342L45.7212 61.5508H43.1925C42.2379 61.5508 41.4061 62.1996 41.1753 63.125L39.0812 71.4994L36.9891 63.125C36.7583 62.1996 35.9265 61.5508 34.972 61.5508H28.1552L19.839 40.8592C19.5146 40.0544 18.7805 39.4638 17.8593 39.5574C16.9921 39.5782 16.2289 40.1355 15.944 40.9569L11.3128 54.3535C10.352 51.8268 9.60549 49.3022 9.14174 46.8067C7.07258 35.6749 10.4581 24.3912 17.7636 18.061C25.275 11.552 36.9059 10.3063 46.0498 15.0311C54.6529 19.4772 60.6899 29.1242 61.2202 39.1789C61.2264 39.3993 61.2347 39.6177 61.2472 39.8381C61.3075 40.9736 62.21 41.822 63.412 41.8054C64.5495 41.7576 65.4375 40.803 65.4042 39.6655C65.398 39.443 65.3876 39.2205 65.3772 38.998C65.1297 30.1245 69.6736 21.3072 77.0747 16.3911C84.6464 11.3586 94.8279 10.6723 103.011 14.6359C111.897 18.9406 117.639 28.151 117.639 38.0996H117.684C118.034 49.0527 113.097 59.3382 108.397 66.5459C105.261 65.1901 101.809 64.4289 98.1823 64.4289C83.9435 64.4289 72.3604 76.0121 72.3604 90.2508C72.3604 92.8461 72.7534 95.3499 73.4708 97.7144C70.9317 99.1784 68.2054 100.642 65.1484 102.173C64.5017 102.504 63.8799 102.807 63.3767 102.859C62.6218 102.934 61.6506 102.522 60.6504 102.052C47.0043 95.6369 34.4833 86.2705 24.439 74.964C22.7254 73.0425 21.1055 71.0648 19.6248 69.083C19.6248 69.083 19.6248 69.0809 19.6227 69.0788C18.847 68.0411 18.0984 66.9868 17.3726 65.9137C16.7321 64.9613 15.4387 64.7055 14.4862 65.3502C13.5338 65.9928 13.2821 67.2842 13.9227 68.2366C14.6838 69.3658 15.4719 70.4763 16.2871 71.5681L16.2892 71.5701C17.8405 73.6476 19.5354 75.7189 21.3259 77.7256C31.7403 89.4481 44.7251 99.1597 58.8744 105.812C60.1887 106.432 61.5945 107.025 63.1687 107.025C63.3746 107.025 63.5825 107.014 63.7947 106.991C65.0154 106.867 66.0676 106.369 67.0221 105.879C69.9314 104.423 72.5662 103.019 75.0264 101.614C79.2395 110.161 88.0215 116.071 98.1781 116.071C112.417 116.071 124 104.487 124 90.2487C124 81.1257 119.232 73.1111 112.067 68.5153ZM98.1781 111.912C86.2331 111.912 76.5153 102.194 76.5153 90.2487C76.5153 78.3037 86.2331 68.586 98.1781 68.586C110.123 68.586 119.841 78.3037 119.841 90.2487C119.841 102.194 110.123 111.912 98.1781 111.912Z" fill="inherit"/>
    <path d="M112.876 83.6461H104.781V75.5504C104.781 74.4025 103.849 73.4709 102.701 73.4709H93.6572C92.5093 73.4709 91.5776 74.4025 91.5776 75.5504V83.6461H83.4819C82.334 83.6461 81.4023 84.5778 81.4023 85.7257V94.7697C81.4023 95.9176 82.334 96.8493 83.4819 96.8493H91.5776V104.945C91.5776 106.093 92.5093 107.025 93.6572 107.025H102.701C103.849 107.025 104.781 106.093 104.781 104.945V96.8513H112.876C114.024 96.8513 114.956 95.9197 114.956 94.7718V85.7257C114.956 84.5778 114.024 83.6461 112.876 83.6461ZM110.797 92.6922H102.701C101.553 92.6922 100.622 93.6239 100.622 94.7718V102.868H95.7367V94.7718C95.7367 93.6239 94.8051 92.6922 93.6572 92.6922H85.5615V87.8053H93.6572C94.8051 87.8053 95.7367 86.8736 95.7367 85.7257V77.63H100.622V85.7257C100.622 86.8736 101.553 87.8053 102.701 87.8053H110.797V92.6922Z" fill="inherit"/>
  </symbol>

  <symbol id="icon-heart-fire" viewBox="0 0 124 124" xmlns="http://www.w3.org/2000/svg">
    <g clip-path="url(#clip0)">
    <path d="M117.007 68.0853C116.916 67.9962 116.806 67.9382 116.703 67.8657C118.377 64.9898 119.748 62.0932 120.851 59.1158C123.323 52.5001 124.348 45.9942 123.899 39.7804C123.892 39.6975 123.849 39.6312 123.834 39.5504C123.128 28.1547 116.307 17.8157 106.036 12.8492C96.0515 8.01326 83.6239 8.84619 74.3768 14.9792C68.5277 18.8744 64.1414 24.7712 61.8581 31.3869C58.8372 23.642 53.1808 17.0698 45.8937 13.3071C34.7073 7.53879 20.4481 9.09068 11.2196 17.0863C2.37655 24.7422 -1.75492 38.2513 0.698271 51.4993C5.91544 79.5701 33.4848 101.674 57.5402 112.997C58.9139 113.647 60.3808 114.275 62.0321 114.275C62.2497 114.275 62.4714 114.263 62.6972 114.24C64.0295 114.093 65.196 113.507 66.0683 113.071C69.5554 111.279 73.0798 109.211 76.8445 106.746C76.8528 106.74 76.8569 106.729 76.8673 106.725C78.3094 108.25 80.0353 109.485 81.9477 110.345C82.0596 110.392 82.1756 110.432 82.2958 110.463C84.5377 111.163 86.8769 111.573 89.2451 111.685C89.2617 111.687 89.2824 111.685 89.3011 111.687C89.7569 111.708 90.2314 111.729 90.6872 111.729C107.014 111.729 122.45 97.4697 122.45 82.39C122.452 73.4558 118.636 69.6931 117.007 68.0853ZM64.1932 109.375C63.5882 109.678 62.8361 110.055 62.2559 110.117C61.4126 110.206 60.3849 109.756 59.3117 109.247C36.1783 98.3606 9.70297 77.2723 4.77173 50.7431C2.58375 38.9143 6.17858 26.9322 13.9339 20.2191C21.915 13.3071 34.2763 11.9769 43.9896 16.991C53.1352 21.713 59.552 31.9754 60.1032 42.6749C60.1094 42.8925 60.1177 43.1142 60.1301 43.3317C60.1881 44.4651 61.1412 45.3995 62.2849 45.2939C63.4183 45.2483 64.3051 44.2972 64.2698 43.1618C64.2636 42.938 64.2533 42.7143 64.2429 42.4926C63.9756 33.0548 68.8053 23.6627 76.6663 18.429C84.7159 13.0937 95.5294 12.3664 104.227 16.5787C113.661 21.1411 119.757 30.927 119.757 41.5043C119.757 41.6514 119.811 41.7778 119.84 41.9166C119.941 46.9783 118.982 52.266 116.964 57.6696C114.421 64.5381 110.286 70.9985 104.076 77.8649C103.227 76.6466 102.647 74.3592 103.156 70.0267L103.194 69.7056C103.287 68.6696 103.446 67.5155 103.614 66.2744C104.953 56.4741 107.188 40.0705 85.2649 35.0729C85.1137 35.0377 84.7739 35.0211 84.6185 35.0211C84.1481 35.0211 83.7027 35.0253 83.2551 35.0729C82.4305 35.162 81.7385 35.736 81.496 36.5316C81.2536 37.3272 81.5126 38.1891 82.1487 38.7237L82.1798 38.6905C88.2423 47.3948 86.7256 52.4317 85.3872 56.876C85.1717 57.5888 84.9707 58.2684 84.807 58.9211C83.771 63.0422 76.658 70.5758 73.2621 70.3209C71.8511 70.2256 71.3083 67.9817 71.099 66.1149C70.9975 65.2219 70.3344 64.4967 69.4559 64.3164C68.5691 64.1341 67.6803 64.5402 67.2369 65.3234C66.0745 67.3705 63.8347 73.261 63.1862 75.534C62.5045 78.0141 62.1585 80.5916 62.1585 83.194C62.1585 91.5584 65.8487 99.436 72.1329 104.835C69.3938 106.547 66.7707 108.049 64.1932 109.375ZM112.884 73.6713C112.468 75.0595 111.819 76.5554 110.802 77.6867C110.124 78.4388 109.358 78.9092 108.5 79.1474C110.099 77.3075 111.556 75.4863 112.884 73.6713ZM89.3342 107.537C87.341 107.434 85.3789 107.081 83.4975 106.493C81.6867 105.652 80.1037 104.353 78.9102 102.724C77.4122 100.696 76.6228 98.2777 76.6228 95.7292C76.6228 94.685 76.7658 93.6096 77.0289 92.5985C77.1056 92.3437 77.2258 91.9956 77.3666 91.5999C78.0193 91.9894 78.6595 92.1075 79.0739 92.1365C82.905 92.3748 87.6746 86.7701 88.4537 83.7472C88.5282 83.4426 88.6215 83.1256 88.7189 82.7961C89.2659 80.9521 90.0097 78.4347 88.8846 75.0077C92.9498 77.4008 92.8027 81.5136 92.1169 86.4552C92.0215 87.1452 91.9345 87.7875 91.8807 88.3635C91.8786 88.3842 91.8599 88.5852 91.8579 88.6059C91.8144 89.0679 91.7294 89.9278 91.7895 90.8705C91.9179 94.6249 93.9236 96.8688 97.1538 96.8688C98.9626 96.8688 100.537 96.0794 101.702 94.5855C101.791 94.4695 101.876 94.3555 101.957 94.2354C101.988 94.5669 102.002 94.9274 102.002 95.3149C102.004 101.251 95.9769 107.05 89.3342 107.537ZM102.607 104.699C104.799 101.964 106.146 98.6859 106.146 95.3149C106.146 90.1785 103.937 88.0195 102.993 87.0975C102.329 86.4511 101.314 86.3226 100.514 86.7846C99.7706 87.2135 99.3708 88.0506 99.4971 88.8897C99.4951 89.445 99.1491 91.3201 98.2581 92.2401C97.9307 92.5799 97.6013 92.7249 97.1538 92.7249C96.6669 92.7249 95.9997 92.7249 95.9272 90.6737C95.8857 90.0024 95.9479 89.3787 95.9831 89.0037L96.0038 88.7571C96.0536 88.2329 96.1344 87.6507 96.2214 87.025C96.9341 81.8845 98.2581 72.31 85.8223 69.4859C85.4141 69.3989 84.865 69.4238 84.4548 69.4673C83.5908 69.5605 82.878 70.1842 82.6688 71.0275C82.4864 71.763 82.7206 72.5317 83.2613 73.0373C86.0709 77.1356 85.3975 79.4147 84.7449 81.6213C84.6268 82.0171 84.5169 82.3983 84.4341 82.7381C83.9699 84.5386 80.5595 88.0796 79.5339 88.0817C79.5298 88.0775 79.2625 87.7895 79.1382 86.652C79.0366 85.7549 78.3674 85.0276 77.4827 84.8515C76.5917 84.663 75.7008 85.0919 75.2636 85.8813C74.6192 87.0499 73.4092 90.2572 73.0446 91.4755C72.6695 92.901 72.481 94.3327 72.481 95.7313C72.481 97.2107 72.7172 98.6445 73.1046 100.031C68.7991 95.5262 66.3024 89.53 66.3024 83.194C66.3024 80.9625 66.5987 78.7538 67.1768 76.6528C67.4503 75.6956 68.0926 73.8764 68.795 72.0655C70.1107 73.9054 71.8076 74.3799 72.9824 74.4586C79.4075 74.8896 87.5938 64.8489 88.8245 59.928C88.9737 59.3355 89.1602 58.718 89.3549 58.0716C90.6147 53.8904 92.2764 48.3666 87.8963 40.1161C102.325 45.0742 100.711 56.9071 99.5096 65.7129C99.3314 67.0224 99.1656 68.2386 99.0703 69.2953L99.0413 69.5398C98.2395 76.3482 99.6815 80.7387 103.258 82.5579C103.305 82.5848 103.365 82.5931 103.415 82.618C103.488 82.6511 103.558 82.676 103.633 82.7008C104.667 83.196 105.848 83.482 107.203 83.482C110.029 83.482 112.497 82.2471 114.341 79.9099C115.53 78.4015 116.348 76.5575 116.875 74.8046C117.685 76.543 118.306 78.9527 118.306 82.3818C118.308 91.5501 111.572 100.331 102.607 104.699Z" fill="inherit"/>
    </g>
    <defs>
    <clipPath id="clip0">
    <rect width="124" height="124" fill="inherit"/>
    </clipPath>
    </defs>
  </symbol>

  <symbol id="icon-keto" viewBox="0 0 130 130" xmlns="http://www.w3.org/2000/svg">
    <g clip-path="url(#clip0)">
    <path d="M130 38.7075C130 29.7462 124.395 22.4553 117.503 22.4553C110.611 22.4553 105.005 29.7462 105.005 38.7075C105.005 45.1837 107.887 50.9123 112.311 53.508L110.795 100.616C110.736 102.449 111.404 104.184 112.68 105.501C113.956 106.819 115.668 107.545 117.503 107.545C119.338 107.545 121.05 106.819 122.326 105.501C123.604 104.184 124.271 102.449 124.213 100.616L122.694 53.508C127.118 50.9123 130 45.1837 130 38.7075ZM119.661 50.1865C118.824 50.531 118.289 51.3587 118.32 52.2622L119.886 100.756C119.906 101.406 119.667 102.02 119.214 102.488C118.309 103.424 116.699 103.421 115.798 102.488C115.345 102.02 115.109 101.404 115.126 100.754L116.69 52.26C116.721 51.3565 116.185 50.5288 115.349 50.1843C111.811 48.7327 109.343 44.0115 109.343 38.7053C109.341 32.2465 113.078 26.7887 117.503 26.7887C121.927 26.7887 125.667 32.2465 125.667 38.7075C125.667 44.0158 123.197 48.737 119.661 50.1865Z" fill="inherit"/>
    <path d="M119.511 40.9457C119.178 42.6205 118.298 44.0938 117.102 44.9865C116.142 45.7037 115.945 47.06 116.66 48.0198C117.085 48.5897 117.739 48.8908 118.4 48.8908C118.85 48.8908 119.305 48.7522 119.693 48.4618C121.769 46.9148 123.214 44.5467 123.762 41.795C123.996 40.6207 123.236 39.481 122.061 39.247C120.887 39.0043 119.745 39.7713 119.511 40.9457Z" fill="inherit"/>
    <path d="M23.504 25.3998C23.3588 24.2125 22.2798 23.3697 21.086 23.517C19.8987 23.6665 19.0558 24.7498 19.2032 25.935L21.1033 41.1948C21.0405 43.4893 19.1642 45.3353 16.8632 45.3353H15.6737C15.6498 45.3353 15.626 45.3353 15.6043 45.3353C15.4678 45.3397 15.3508 45.3982 15.223 45.4263C15.08 45.4567 14.9305 45.4675 14.7983 45.526C14.6748 45.5802 14.5795 45.6733 14.469 45.7492C14.3498 45.8315 14.2198 45.8965 14.1202 46.0005C14.027 46.0958 13.9728 46.2172 13.8992 46.3277C13.819 46.449 13.7237 46.5573 13.6695 46.6938C13.6197 46.8195 13.6153 46.9603 13.5893 47.0947C13.5633 47.2312 13.507 47.3568 13.507 47.502C13.507 47.515 13.5135 47.5258 13.5135 47.5388C13.5135 47.5497 13.507 47.5605 13.507 47.5713L15.1927 99.5995C15.2143 100.284 14.9652 100.932 14.4907 101.417C13.5547 102.382 11.8777 102.384 10.9417 101.417C10.4672 100.93 10.218 100.284 10.2375 99.606L11.9253 47.5713C11.9253 47.5605 11.9188 47.5497 11.9188 47.5388C11.9188 47.5258 11.9253 47.515 11.9253 47.502C11.9253 47.359 11.8712 47.2312 11.843 47.0968C11.817 46.9625 11.8127 46.8195 11.7628 46.696C11.7087 46.5595 11.6133 46.4512 11.5332 46.3298C11.4595 46.2193 11.4053 46.098 11.3122 46.0027C11.2125 45.8987 11.0825 45.8337 10.9633 45.7513C10.8528 45.6755 10.7575 45.5845 10.634 45.5282C10.5018 45.4697 10.3523 45.4588 10.2093 45.4285C10.0815 45.4003 9.9645 45.344 9.828 45.3397C9.81717 45.3397 9.80633 45.3462 9.7955 45.3462C9.7825 45.3462 9.77167 45.3397 9.75867 45.3397H8.57567C6.27467 45.3397 4.39833 43.4937 4.3355 41.1992L6.23567 25.9393C6.383 24.752 5.54233 23.6708 4.355 23.5213C3.1655 23.3697 2.08433 24.2147 1.937 25.3998L0.0173333 40.807C0.0065 40.8958 0 40.9847 0 41.0757C0 45.4567 3.29983 49.0403 7.53133 49.5625L5.91067 99.4738C5.85867 101.339 6.54117 103.103 7.839 104.438C9.13033 105.768 10.8637 106.5 12.7205 106.5C14.5773 106.5 16.3128 105.768 17.6042 104.438C18.902 103.103 19.5845 101.341 19.5303 99.4673L17.9075 49.5625C22.139 49.0382 25.4388 45.4545 25.4388 41.0757C25.4388 40.9847 25.4323 40.8958 25.4215 40.807L23.504 25.3998Z" fill="inherit"/>
    <path d="M13.1431 45.1035C14.3412 45.1035 15.3097 44.1328 15.3097 42.9368V25.6685C15.3097 24.4725 14.3412 23.5018 13.1431 23.5018C11.9449 23.5018 10.9764 24.4725 10.9764 25.6685V42.9368C10.9764 44.1328 11.9471 45.1035 13.1431 45.1035Z" fill="inherit"/>
    <path d="M65 26.7887C43.4958 26.7887 26 44.2845 26 65.7887C26 87.2928 43.4958 104.789 65 104.789C86.5041 104.789 104 87.2928 104 65.7887C104 44.2845 86.5041 26.7887 65 26.7887ZM97.084 52.7042L67.1666 62.0533V31.2325C80.7105 32.0753 92.1678 40.6987 97.084 52.7042ZM30.3333 65.7887C30.3333 47.4045 44.7286 32.3592 62.8333 31.2325V64.4583L46.5096 95.0625C36.8073 88.9113 30.3333 78.104 30.3333 65.7887ZM65 100.455C59.7458 100.455 54.7798 99.2463 50.3121 97.1447L66.495 66.8027L98.4468 56.8165C99.2181 59.6852 99.6666 62.6817 99.6666 65.7887C99.6666 84.903 84.1143 100.455 65 100.455Z" fill="inherit"/>
    <path d="M78.9143 54.1667C79.0659 54.1667 79.2198 54.1623 79.3714 54.1515C80.8274 54.054 82.1773 53.4993 83.2779 52.5482C84.1836 51.766 84.2854 50.3988 83.5033 49.4932C82.7233 48.5853 81.3496 48.49 80.4483 49.2678C80.0626 49.5993 79.5903 49.7943 79.0789 49.829C77.8613 49.9005 76.6739 48.9407 76.5873 47.6515C76.5439 47.0275 76.7454 46.4252 77.1593 45.9528C77.5688 45.4827 78.1386 45.1988 78.7648 45.1577C79.4928 45.11 80.2099 45.4003 80.6974 45.9658C81.4774 46.8715 82.8489 46.9712 83.7524 46.1912C84.6581 45.409 84.7599 44.0418 83.9777 43.1362C82.6127 41.5545 80.5544 40.6943 78.4722 40.8352C76.6934 40.9565 75.0684 41.7603 73.8963 43.1037C72.7241 44.447 72.1434 46.1673 72.2648 47.944C72.5009 51.4648 75.4389 54.1667 78.9143 54.1667Z" fill="inherit"/>
    <path d="M77.3999 73.6667H71.5C70.3019 73.6667 69.3334 74.6374 69.3334 75.8334V77.519V84.2595V91C69.3334 92.196 70.3019 93.1667 71.5 93.1667C72.6982 93.1667 73.6667 92.196 73.6667 91V86.4262H77.3999C80.9164 86.4262 83.7785 83.564 83.7785 80.0475C83.7785 76.531 80.9164 73.6667 77.3999 73.6667ZM77.3999 82.0929H73.6667V78H77.3999C78.5287 78 79.4452 78.9187 79.4452 80.0454C79.4452 81.172 78.5265 82.0929 77.3999 82.0929Z" fill="inherit"/>
    <path d="M45.5 67.1667H52C53.1982 67.1667 54.1667 66.196 54.1667 65C54.1667 63.804 53.1982 62.8334 52 62.8334H45.5V58.5H52C53.1982 58.5 54.1667 57.5294 54.1667 56.3334C54.1667 55.1374 53.1982 54.1667 52 54.1667H43.3334C42.1352 54.1667 41.1667 55.1374 41.1667 56.3334V73.6667C41.1667 74.8627 42.1352 75.8334 43.3334 75.8334C44.5315 75.8334 45.5 74.8627 45.5 73.6667V67.1667Z" fill="inherit"/>
    </g>
    <defs>
    <clipPath id="clip0">
    <rect width="130" height="130" fill="inherit"/>
    </clipPath>
    </defs>
  </symbol>

</svg>
