<svg>

  <symbol id="icon-logo" width="23" height="34" viewBox="0 0 23 34" fill="none" xmlns="http://www.w3.org/2000/svg">
    <path fill-rule="evenodd" clip-rule="evenodd" d="M0.0913696 10.9679C0.0913696 4.92017 5.01154 0 11.0593 0C17.1071 0 22.0272 4.92017 22.0272 10.9679V15.1413H19.2486V10.968C19.2486 6.45236 15.5749 2.77864 11.0593 2.77864C6.54367 2.77864 2.86994 6.45236 2.86994 10.968V15.1413H0.0913696V10.9679ZM0.000671387 32.9947C0.000671387 33.5499 0.450773 34 1.006 34C1.56122 34 2.01132 33.5499 2.01132 32.9947V26.7306H0.000671387V32.9947ZM4.02203 32.9947C4.02203 33.5499 4.47214 34 5.02736 34C5.58258 34 6.03268 33.5499 6.03268 32.9947V26.7306H4.02203V32.9947ZM9.04866 34C8.49344 34 8.04333 33.5499 8.04333 32.9947V26.7306H10.054V32.9947C10.054 33.5499 9.60388 34 9.04866 34ZM12.0647 32.9947C12.0647 33.5499 12.5148 34 13.07 34C13.6252 34 14.0753 33.5499 14.0753 32.9947V26.7306H12.0647V32.9947ZM17.0914 34C16.5362 34 16.0861 33.5499 16.0861 32.9947V26.7306H18.0967V32.9947C18.0967 33.5499 17.6466 34 17.0914 34ZM20.1073 32.9947C20.1073 33.5499 20.5574 34 21.1126 34C21.6678 34 22.118 33.5499 22.118 32.9947V26.7306H20.1073V32.9947ZM11.0593 9.57861C10.2931 9.57861 9.66992 10.2018 9.66992 10.968V15.1413H12.4486V10.968C12.4487 10.2018 11.8254 9.57861 11.0593 9.57861ZM4.88062 10.9681C4.88062 7.56116 7.65235 4.78943 11.0593 4.78943C14.4662 4.78943 17.238 7.56116 17.2379 10.9681V15.1414H14.4593V10.9681C14.4593 9.09328 12.934 7.56807 11.0593 7.56807C9.18447 7.56807 7.65925 9.09328 7.65925 10.9681V15.1414H4.88062V10.9681ZM0 24.7199L22.095 24.7877V22.009L0 21.9413V24.7199ZM22.095 17.2197V19.9983L0 19.9306V17.152L22.095 17.2197Z" fill="#528491"/>
  </symbol>

  <symbol id="icon-login" width="15" height="15" viewBox="0 0 15 15" fill="none" xmlns="http://www.w3.org/2000/svg">
    <path d="M12.8033 9.69668C11.9864 8.87982 11.0141 8.27511 9.95329 7.90904C11.0895 7.12649 11.8359 5.81684 11.8359 4.33594C11.8359 1.94511 9.89083 0 7.5 0C5.10917 0 3.16406 1.94511 3.16406 4.33594C3.16406 5.81684 3.91052 7.12649 5.04674 7.90904C3.9859 8.27511 3.01359 8.87982 2.19671 9.69668C0.780147 11.1133 0 12.9967 0 15H1.17188C1.17188 11.5107 4.01065 8.67188 7.5 8.67188C10.9893 8.67188 13.8281 11.5107 13.8281 15H15C15 12.9967 14.2199 11.1133 12.8033 9.69668ZM7.5 7.5C5.75534 7.5 4.33594 6.08063 4.33594 4.33594C4.33594 2.59125 5.75534 1.17188 7.5 1.17188C9.24466 1.17188 10.6641 2.59125 10.6641 4.33594C10.6641 6.08063 9.24466 7.5 7.5 7.5Z" fill="#354F62"/>
  </symbol>


</svg>
